<svg version="1.1" xmlns="http://www.w3.org/2000/svg" xmlns:xlink="http://www.w3.org/1999/xlink" width="236.71435546875" height="107"><defs/><g><g transform="translate(-548,-194) scale(1,1)"><rect fill="#C0C0C0" stroke="none" x="565" y="211" width="216.71435546875" height="87" opacity="0.2"/></g><g transform="translate(-548,-194) scale(1,1)"><rect fill="#ffffff" stroke="none" x="558" y="204" width="216.71435546875" height="87"/></g><g transform="translate(-548,-194) scale(1,1)"><path fill="none" stroke="#000000" d="M 558 204 L 774.71435546875 204 L 774.71435546875 291 L 558 291 L 558 204 Z Z" stroke-miterlimit="10"/></g><g transform="translate(-548,-194) scale(1,1)"><path fill="none" stroke="#000000" d="M 558 229 L 774.71435546875 229" stroke-miterlimit="10"/></g><g transform="translate(-548,-194) scale(1,1)"><path fill="none" stroke="#000000" d="M 558 239 L 774.71435546875 239" stroke-miterlimit="10"/></g><g transform="translate(-548,-194) scale(1,1)"><g><path fill="none" stroke="none"/><text fill="#000000" stroke="none" font-family="Arial" font-size="13px" font-style="normal" font-weight="bold" text-decoration="none" x="643.239013671875" y="222">Aircraft</text></g></g><g transform="translate(-548,-194) scale(1,1)"><g><path fill="none" stroke="none"/><text fill="#000000" stroke="none" font-family="Arial" font-size="13px" font-style="normal" font-weight="normal" text-decoration="none" x="563" y="255">+ShowObject()</text></g></g><g transform="translate(-548,-194) scale(1,1)"><g><path fill="none" stroke="none"/><text fill="#000000" stroke="none" font-family="Arial" font-size="13px" font-style="normal" font-weight="normal" text-decoration="none" x="563" y="270">+Move(coords: Coordinates)</text></g></g><g transform="translate(-548,-194) scale(1,1)"><g><path fill="none" stroke="none"/><text fill="#000000" stroke="none" font-family="Arial" font-size="13px" font-style="normal" font-weight="normal" text-decoration="none" x="563" y="285">«constructor»+Aircraft(name: string)</text></g></g></g></svg>