<svg version="1.1" xmlns="http://www.w3.org/2000/svg" xmlns:xlink="http://www.w3.org/1999/xlink" width="230.24609375" height="107"><defs/><g><g transform="translate(-586,-228) scale(1,1)"><rect fill="#C0C0C0" stroke="none" x="603" y="245" width="210.24609375" height="87" opacity="0.2"/></g><g transform="translate(-586,-228) scale(1,1)"><rect fill="#ffffff" stroke="none" x="596" y="238" width="210.24609375" height="87"/></g><g transform="translate(-586,-228) scale(1,1)"><path fill="none" stroke="#000000" d="M 596 238 L 806.24609375 238 L 806.24609375 325 L 596 325 L 596 238 Z Z" stroke-miterlimit="10"/></g><g transform="translate(-586,-228) scale(1,1)"><path fill="none" stroke="#000000" d="M 596 263 L 806.24609375 263" stroke-miterlimit="10"/></g><g transform="translate(-586,-228) scale(1,1)"><path fill="none" stroke="#000000" d="M 596 273 L 806.24609375 273" stroke-miterlimit="10"/></g><g transform="translate(-586,-228) scale(1,1)"><g><path fill="none" stroke="none"/><text fill="#000000" stroke="none" font-family="Arial" font-size="13px" font-style="normal" font-weight="bold" text-decoration="none" x="636.11669921875" y="256">AuthorizationSystem</text></g></g><g transform="translate(-586,-228) scale(1,1)"><g><path fill="none" stroke="none"/><text fill="#000000" stroke="none" font-family="Arial" font-size="13px" font-style="normal" font-weight="normal" text-decoration="none" x="601" y="289">+AddObject(obj: UniqueObject): int</text></g></g><g transform="translate(-586,-228) scale(1,1)"><g><path fill="none" stroke="none"/><text fill="#000000" stroke="none" font-family="Arial" font-size="13px" font-style="normal" font-weight="normal" text-decoration="none" x="601" y="304">+ShowObjects()</text></g></g><g transform="translate(-586,-228) scale(1,1)"><g><path fill="none" stroke="none"/><text fill="#000000" stroke="none" font-family="Arial" font-size="13px" font-style="normal" font-weight="normal" text-decoration="none" x="601" y="319">+ShowDrivers()</text></g></g></g></svg>