<svg version="1.1" xmlns="http://www.w3.org/2000/svg" xmlns:xlink="http://www.w3.org/1999/xlink" width="260.58154296875" height="107"><defs/><g><g transform="translate(-751,-315) scale(1,1)"><rect fill="#C0C0C0" stroke="none" x="768" y="332" width="240.58154296875" height="87" opacity="0.2"/></g><g transform="translate(-751,-315) scale(1,1)"><rect fill="#ffffff" stroke="none" x="761" y="325" width="240.58154296875" height="87"/></g><g transform="translate(-751,-315) scale(1,1)"><path fill="none" stroke="#000000" d="M 761 325 L 1001.58154296875 325 L 1001.58154296875 412 L 761 412 L 761 325 Z Z" stroke-miterlimit="10"/></g><g transform="translate(-751,-315) scale(1,1)"><path fill="none" stroke="#000000" d="M 761 350 L 1001.58154296875 350" stroke-miterlimit="10"/></g><g transform="translate(-751,-315) scale(1,1)"><path fill="none" stroke="#000000" d="M 761 360 L 1001.58154296875 360" stroke-miterlimit="10"/></g><g transform="translate(-751,-315) scale(1,1)"><g><path fill="none" stroke="none"/><text fill="#000000" stroke="none" font-family="Arial" font-size="13px" font-style="normal" font-weight="bold" text-decoration="none" x="845.5439453125" y="343">Automobile</text></g></g><g transform="translate(-751,-315) scale(1,1)"><g><path fill="none" stroke="none"/><text fill="#000000" stroke="none" font-family="Arial" font-size="13px" font-style="normal" font-weight="normal" text-decoration="none" x="766" y="376">+ShowObject()</text></g></g><g transform="translate(-751,-315) scale(1,1)"><g><path fill="none" stroke="none"/><text fill="#000000" stroke="none" font-family="Arial" font-size="13px" font-style="normal" font-weight="normal" text-decoration="none" x="766" y="391">+Move(coords: Coordinates)</text></g></g><g transform="translate(-751,-315) scale(1,1)"><g><path fill="none" stroke="none"/><text fill="#000000" stroke="none" font-family="Arial" font-size="13px" font-style="normal" font-weight="normal" text-decoration="none" x="766" y="406">«constructor»+Automobile(name: string)</text></g></g></g></svg>