<svg version="1.1" xmlns="http://www.w3.org/2000/svg" xmlns:xlink="http://www.w3.org/1999/xlink" width="388.5439453125" height="120"><defs/><g><g transform="translate(-359,-178) scale(1,1)"><rect fill="#C0C0C0" stroke="none" x="376" y="195" width="368.5439453125" height="100" opacity="0.2"/></g><g transform="translate(-359,-178) scale(1,1)"><rect fill="#ffffff" stroke="none" x="369" y="188" width="368.5439453125" height="100"/></g><g transform="translate(-359,-178) scale(1,1)"><path fill="none" stroke="#000000" d="M 369 188 L 737.5439453125 188 L 737.5439453125 288 L 369 288 L 369 188 Z Z" stroke-miterlimit="10"/></g><g transform="translate(-359,-178) scale(1,1)"><path fill="none" stroke="#000000" d="M 369 213 L 737.5439453125 213" stroke-miterlimit="10"/></g><g transform="translate(-359,-178) scale(1,1)"><path fill="none" stroke="#000000" d="M 369 251 L 737.5439453125 251" stroke-miterlimit="10"/></g><g transform="translate(-359,-178) scale(1,1)"><g><path fill="none" stroke="none"/><text fill="#000000" stroke="none" font-family="Arial" font-size="13px" font-style="normal" font-weight="bold" text-decoration="none" x="515.35107421875" y="206">Coordinates</text></g></g><g transform="translate(-359,-178) scale(1,1)"><g><path fill="none" stroke="none"/><text fill="#000000" stroke="none" font-family="Arial" font-size="13px" font-style="normal" font-weight="normal" text-decoration="none" x="374" y="229">#latitude: double</text></g></g><g transform="translate(-359,-178) scale(1,1)"><g><path fill="none" stroke="none"/><text fill="#000000" stroke="none" font-family="Arial" font-size="13px" font-style="normal" font-weight="normal" text-decoration="none" x="374" y="244">#longitude: double</text></g></g><g transform="translate(-359,-178) scale(1,1)"><g><path fill="none" stroke="none"/><text fill="#000000" stroke="none" font-family="Arial" font-size="13px" font-style="normal" font-weight="normal" text-decoration="none" x="374" y="267">«constructor»+Coordinates(longitude: double, latitude: double)</text></g></g><g transform="translate(-359,-178) scale(1,1)"><g><path fill="none" stroke="none"/><text fill="#000000" stroke="none" font-family="Arial" font-size="13px" font-style="normal" font-weight="normal" text-decoration="none" x="374" y="282">+ShowInfo()</text></g></g></g></svg>