<svg version="1.1" xmlns="http://www.w3.org/2000/svg" xmlns:xlink="http://www.w3.org/1999/xlink" width="115.3408203125" height="77"><defs/><g><g transform="translate(-547,-214) scale(1,1)"><rect fill="#C0C0C0" stroke="none" x="564" y="231" width="95.3408203125" height="57" opacity="0.2"/></g><g transform="translate(-547,-214) scale(1,1)"><rect fill="#ffffff" stroke="none" x="557" y="224" width="95.3408203125" height="57"/></g><g transform="translate(-547,-214) scale(1,1)"><path fill="none" stroke="#000000" d="M 557 224 L 652.3408203125 224 L 652.3408203125 281 L 557 281 L 557 224 Z Z" stroke-miterlimit="10"/></g><g transform="translate(-547,-214) scale(1,1)"><path fill="none" stroke="#000000" d="M 557 249 L 652.3408203125 249" stroke-miterlimit="10"/></g><g transform="translate(-547,-214) scale(1,1)"><path fill="none" stroke="#000000" d="M 557 259 L 652.3408203125 259" stroke-miterlimit="10"/></g><g transform="translate(-547,-214) scale(1,1)"><g><path fill="none" stroke="none"/><text fill="#000000" stroke="none" font-family="Arial" font-size="13px" font-style="normal" font-weight="bold" text-decoration="none" x="571.075439453125" y="242">Dispatcher</text></g></g><g transform="translate(-547,-214) scale(1,1)"><g><path fill="none" stroke="none"/><text fill="#000000" stroke="none" font-family="Arial" font-size="13px" font-style="normal" font-weight="normal" text-decoration="none" x="562" y="275">+ShowObject()</text></g></g></g></svg>