<svg version="1.1" xmlns="http://www.w3.org/2000/svg" xmlns:xlink="http://www.w3.org/1999/xlink" width="230.2080078125" height="150"><defs/><g><g transform="translate(-811,-326) scale(1,1)"><rect fill="#C0C0C0" stroke="none" x="828" y="343" width="210.2080078125" height="130" opacity="0.2"/></g><g transform="translate(-811,-326) scale(1,1)"><rect fill="#ffffff" stroke="none" x="821" y="336" width="210.2080078125" height="130"/></g><g transform="translate(-811,-326) scale(1,1)"><path fill="none" stroke="#000000" d="M 821 336 L 1031.2080078125 336 L 1031.2080078125 466 L 821 466 L 821 336 Z Z" stroke-miterlimit="10"/></g><g transform="translate(-811,-326) scale(1,1)"><path fill="none" stroke="#000000" d="M 821 361 L 1031.2080078125 361" stroke-miterlimit="10"/></g><g transform="translate(-811,-326) scale(1,1)"><path fill="none" stroke="#000000" d="M 821 384 L 1031.2080078125 384" stroke-miterlimit="10"/></g><g transform="translate(-811,-326) scale(1,1)"><g><path fill="none" stroke="none"/><text fill="#000000" stroke="none" font-family="Arial" font-size="13px" font-style="normal" font-weight="bold" text-decoration="none" x="907.31494140625" y="354">Driver</text></g></g><g transform="translate(-811,-326) scale(1,1)"><g><path fill="none" stroke="none"/><text fill="#000000" stroke="none" font-family="Arial" font-size="13px" font-style="normal" font-weight="normal" text-decoration="none" x="826" y="377">#vehicle: Vehicle[0..1]</text></g></g><g transform="translate(-811,-326) scale(1,1)"><g><path fill="none" stroke="none"/><text fill="#000000" stroke="none" font-family="Arial" font-size="13px" font-style="normal" font-weight="normal" text-decoration="none" x="826" y="400">+ShowObject()</text></g></g><g transform="translate(-811,-326) scale(1,1)"><g><path fill="none" stroke="none"/><text fill="#000000" stroke="none" font-family="Arial" font-size="13px" font-style="normal" font-weight="normal" text-decoration="none" x="826" y="415">+SetVehicle(vehicle: Vehicle)</text></g></g><g transform="translate(-811,-326) scale(1,1)"><g><path fill="none" stroke="none"/><text fill="#000000" stroke="none" font-family="Arial" font-size="13px" font-style="normal" font-weight="normal" text-decoration="none" x="826" y="430">+GetVehicle(): Vehicle[0..1]</text></g></g><g transform="translate(-811,-326) scale(1,1)"><g><path fill="none" stroke="none"/><text fill="#000000" stroke="none" font-family="Arial" font-size="13px" font-style="normal" font-weight="normal" text-decoration="none" x="826" y="445">+Move(longitude: int, latitude: int)</text></g></g><g transform="translate(-811,-326) scale(1,1)"><g><path fill="none" stroke="none"/><text fill="#000000" stroke="none" font-family="Arial" font-size="13px" font-style="normal" font-weight="normal" text-decoration="none" x="826" y="460">«constructor»+Driver(name: string)</text></g></g></g></svg>