<svg version="1.1" xmlns="http://www.w3.org/2000/svg" xmlns:xlink="http://www.w3.org/1999/xlink" width="652.7080078125" height="270"><defs/><g><g transform="translate(-526,-221) scale(1,1)"><rect fill="#C0C0C0" stroke="none" x="543" y="238" width="632.7080078125" height="250" opacity="0.2"/></g><g transform="translate(-526,-221) scale(1,1)"><rect fill="#ffffff" stroke="none" x="536" y="231" width="632.7080078125" height="250"/></g><g transform="translate(-526,-221) scale(1,1)"><path fill="none" stroke="#000000" d="M 536 231 L 1168.7080078125 231 L 1168.7080078125 481 L 536 481 L 536 231 Z Z" stroke-miterlimit="10"/></g><g transform="translate(-526,-221) scale(1,1)"><path fill="none" stroke="#000000" d="M 536 256 L 1168.7080078125 256" stroke-miterlimit="10"/></g><g transform="translate(-526,-221) scale(1,1)"><path fill="none" stroke="#000000" d="M 536 339 L 1168.7080078125 339" stroke-miterlimit="10"/></g><g transform="translate(-526,-221) scale(1,1)"><g><path fill="none" stroke="none"/><text fill="#000000" stroke="none" font-family="Arial" font-size="13px" font-style="normal" font-weight="bold" text-decoration="none" x="788.4267578125" y="249">DirectTransportation</text></g></g><g transform="translate(-526,-221) scale(1,1)"><g><path fill="none" stroke="none"/><text fill="#000000" stroke="none" font-family="Arial" font-size="13px" font-style="normal" font-weight="normal" text-decoration="none" x="541" y="272">#startPoint: Point</text></g></g><g transform="translate(-526,-221) scale(1,1)"><g><path fill="none" stroke="none"/><text fill="#000000" stroke="none" font-family="Arial" font-size="13px" font-style="normal" font-weight="normal" text-decoration="none" x="541" y="287">#endPoint: Point</text></g></g><g transform="translate(-526,-221) scale(1,1)"><g><path fill="none" stroke="none"/><text fill="#000000" stroke="none" font-family="Arial" font-size="13px" font-style="normal" font-weight="normal" text-decoration="none" x="541" y="302">#status: Status = NotStarted</text></g></g><g transform="translate(-526,-221) scale(1,1)"><g><path fill="none" stroke="none"/><text fill="#000000" stroke="none" font-family="Arial" font-size="13px" font-style="normal" font-weight="normal" text-decoration="none" x="541" y="317">#vehicle: Vehicle</text></g></g><g transform="translate(-526,-221) scale(1,1)"><g><path fill="none" stroke="none"/><text fill="#000000" stroke="none" font-family="Arial" font-size="13px" font-style="normal" font-weight="normal" text-decoration="none" x="541" y="332">#transportation: Transportation</text></g></g><g transform="translate(-526,-221) scale(1,1)"><g><path fill="none" stroke="none"/><text fill="#000000" stroke="none" font-family="Arial" font-size="13px" font-style="normal" font-weight="normal" text-decoration="none" x="541" y="355">«constructor»+DirectTransportation(start: Point, end: Point, executor: Vehicle, transportation: Transportation)</text></g></g><g transform="translate(-526,-221) scale(1,1)"><g><path fill="none" stroke="none"/><text fill="#000000" stroke="none" font-family="Arial" font-size="13px" font-style="normal" font-weight="normal" text-decoration="none" x="541" y="370">+GetEndPoint(): Point</text></g></g><g transform="translate(-526,-221) scale(1,1)"><g><path fill="none" stroke="none"/><text fill="#000000" stroke="none" font-family="Arial" font-size="13px" font-style="normal" font-weight="normal" text-decoration="none" x="541" y="385">+GetStatus(): Status</text></g></g><g transform="translate(-526,-221) scale(1,1)"><g><path fill="none" stroke="none"/><text fill="#000000" stroke="none" font-family="Arial" font-size="13px" font-style="normal" font-weight="normal" text-decoration="none" x="541" y="400">+GetVehicle(): Vehicle</text></g></g><g transform="translate(-526,-221) scale(1,1)"><g><path fill="none" stroke="none"/><text fill="#000000" stroke="none" font-family="Arial" font-size="13px" font-style="normal" font-weight="normal" text-decoration="none" x="541" y="415">+ShowInfo()</text></g></g><g transform="translate(-526,-221) scale(1,1)"><g><path fill="none" stroke="none"/><text fill="#000000" stroke="none" font-family="Arial" font-size="13px" font-style="normal" font-weight="normal" text-decoration="none" x="541" y="430">+IssueDT()</text></g></g><g transform="translate(-526,-221) scale(1,1)"><g><path fill="none" stroke="none"/><text fill="#000000" stroke="none" font-family="Arial" font-size="13px" font-style="normal" font-weight="normal" text-decoration="none" x="541" y="445">+Cancel()</text></g></g><g transform="translate(-526,-221) scale(1,1)"><g><path fill="none" stroke="none"/><text fill="#000000" stroke="none" font-family="Arial" font-size="13px" font-style="normal" font-weight="normal" text-decoration="none" x="541" y="460">+TryStart(): bool</text></g></g><g transform="translate(-526,-221) scale(1,1)"><g><path fill="none" stroke="none"/><text fill="#000000" stroke="none" font-family="Arial" font-size="13px" font-style="normal" font-weight="normal" text-decoration="none" x="541" y="475">+TryEnd(): bool</text></g></g></g></svg>