<svg version="1.1" xmlns="http://www.w3.org/2000/svg" xmlns:xlink="http://www.w3.org/1999/xlink" width="341.51416015625" height="135"><defs/><g><g transform="translate(-610,-260) scale(1,1)"><rect fill="#C0C0C0" stroke="none" x="627" y="277" width="321.51416015625" height="115" opacity="0.2"/></g><g transform="translate(-610,-260) scale(1,1)"><rect fill="#ffffff" stroke="none" x="620" y="270" width="321.51416015625" height="115"/></g><g transform="translate(-610,-260) scale(1,1)"><path fill="none" stroke="#000000" d="M 620 270 L 941.51416015625 270 L 941.51416015625 385 L 620 385 L 620 270 Z Z" stroke-miterlimit="10"/></g><g transform="translate(-610,-260) scale(1,1)"><path fill="none" stroke="#000000" d="M 620 295 L 941.51416015625 295" stroke-miterlimit="10"/></g><g transform="translate(-610,-260) scale(1,1)"><path fill="none" stroke="#000000" d="M 620 333 L 941.51416015625 333" stroke-miterlimit="10"/></g><g transform="translate(-610,-260) scale(1,1)"><g><path fill="none" stroke="none"/><text fill="#000000" stroke="none" font-family="Arial" font-size="13px" font-style="normal" font-weight="bold" text-decoration="none" x="764.51025390625" y="288">Point</text></g></g><g transform="translate(-610,-260) scale(1,1)"><g><path fill="none" stroke="none"/><text fill="#000000" stroke="none" font-family="Arial" font-size="13px" font-style="normal" font-weight="normal" text-decoration="none" x="625" y="311">#name: string</text></g></g><g transform="translate(-610,-260) scale(1,1)"><g><path fill="none" stroke="none"/><text fill="#000000" stroke="none" font-family="Arial" font-size="13px" font-style="normal" font-weight="normal" text-decoration="none" x="625" y="326">#coords: Coordinates</text></g></g><g transform="translate(-610,-260) scale(1,1)"><g><path fill="none" stroke="none"/><text fill="#000000" stroke="none" font-family="Arial" font-size="13px" font-style="normal" font-weight="normal" text-decoration="none" x="625" y="349">+IsPoint(coords: Coordinates): bool</text></g></g><g transform="translate(-610,-260) scale(1,1)"><g><path fill="none" stroke="none"/><text fill="#000000" stroke="none" font-family="Arial" font-size="13px" font-style="normal" font-weight="normal" text-decoration="none" x="625" y="364">+ShowInfo()</text></g></g><g transform="translate(-610,-260) scale(1,1)"><g><path fill="none" stroke="none"/><text fill="#000000" stroke="none" font-family="Arial" font-size="13px" font-style="normal" font-weight="normal" text-decoration="none" x="625" y="379">«constructor»+Point(coordsCoordinates, name: string)</text></g></g></g></svg>