<svg version="1.1" xmlns="http://www.w3.org/2000/svg" xmlns:xlink="http://www.w3.org/1999/xlink" width="287.0576171875" height="107"><defs/><g><g transform="translate(-756,-263) scale(1,1)"><rect fill="#C0C0C0" stroke="none" x="773" y="280" width="267.0576171875" height="87" opacity="0.2"/></g><g transform="translate(-756,-263) scale(1,1)"><rect fill="#ffffff" stroke="none" x="766" y="273" width="267.0576171875" height="87"/></g><g transform="translate(-756,-263) scale(1,1)"><path fill="none" stroke="#000000" d="M 766 273 L 1033.0576171875 273 L 1033.0576171875 360 L 766 360 L 766 273 Z Z" stroke-miterlimit="10"/></g><g transform="translate(-756,-263) scale(1,1)"><path fill="none" stroke="#000000" d="M 766 298 L 1033.0576171875 298" stroke-miterlimit="10"/></g><g transform="translate(-756,-263) scale(1,1)"><path fill="none" stroke="#000000" d="M 766 308 L 1033.0576171875 308" stroke-miterlimit="10"/></g><g transform="translate(-756,-263) scale(1,1)"><g><path fill="none" stroke="none"/><text fill="#000000" stroke="none" font-family="Arial" font-size="13px" font-style="normal" font-weight="bold" text-decoration="none" x="852.91796875" y="291">RailwayVehicle</text></g></g><g transform="translate(-756,-263) scale(1,1)"><g><path fill="none" stroke="none"/><text fill="#000000" stroke="none" font-family="Arial" font-size="13px" font-style="normal" font-weight="normal" text-decoration="none" x="771" y="324">+ShowObject()</text></g></g><g transform="translate(-756,-263) scale(1,1)"><g><path fill="none" stroke="none"/><text fill="#000000" stroke="none" font-family="Arial" font-size="13px" font-style="normal" font-weight="normal" text-decoration="none" x="771" y="339">+Move(coords: Coordinates)</text></g></g><g transform="translate(-756,-263) scale(1,1)"><g><path fill="none" stroke="none"/><text fill="#000000" stroke="none" font-family="Arial" font-size="13px" font-style="normal" font-weight="normal" text-decoration="none" x="771" y="354">«constructor»+RailwayWehicle(name: string)</text></g></g></g></svg>