<svg version="1.1" xmlns="http://www.w3.org/2000/svg" xmlns:xlink="http://www.w3.org/1999/xlink" width="115.72802734375" height="125"><defs/><g><g transform="translate(-441,-266) scale(1,1)"><rect fill="#C0C0C0" stroke="none" x="458" y="283" width="95.72802734375" height="105" opacity="0.2"/></g><g transform="translate(-441,-266) scale(1,1)"><rect fill="#ffffff" stroke="none" x="451" y="276" width="95.72802734375" height="105"/></g><g transform="translate(-441,-266) scale(1,1)"><path fill="none" stroke="#000000" d="M 451 276 L 546.72802734375 276 L 546.72802734375 381 L 451 381 L 451 276 Z Z" stroke-miterlimit="10"/></g><g transform="translate(-441,-266) scale(1,1)"><path fill="none" stroke="#000000" d="M 451 314 L 546.72802734375 314" stroke-miterlimit="10"/></g><g transform="translate(-441,-266) scale(1,1)"><g><path fill="none" stroke="none"/><text fill="#000000" stroke="none" font-family="Arial" font-size="13px" font-style="normal" font-weight="normal" text-decoration="none" x="455.5" y="292">«enumeration»</text></g></g><g transform="translate(-441,-266) scale(1,1)"><g><path fill="none" stroke="none"/><text fill="#000000" stroke="none" font-family="Arial" font-size="13px" font-style="normal" font-weight="bold" text-decoration="none" x="478.9990234375" y="307">Status</text></g></g><g transform="translate(-441,-266) scale(1,1)"><g><path fill="none" stroke="none"/><text fill="#000000" stroke="none" font-family="Arial" font-size="13px" font-style="normal" font-weight="normal" text-decoration="none" x="456" y="330">NotStarted</text></g></g><g transform="translate(-441,-266) scale(1,1)"><g><path fill="none" stroke="none"/><text fill="#000000" stroke="none" font-family="Arial" font-size="13px" font-style="normal" font-weight="normal" text-decoration="none" x="456" y="345">Started</text></g></g><g transform="translate(-441,-266) scale(1,1)"><g><path fill="none" stroke="none"/><text fill="#000000" stroke="none" font-family="Arial" font-size="13px" font-style="normal" font-weight="normal" text-decoration="none" x="456" y="360">Canceled</text></g></g><g transform="translate(-441,-266) scale(1,1)"><g><path fill="none" stroke="none"/><text fill="#000000" stroke="none" font-family="Arial" font-size="13px" font-style="normal" font-weight="normal" text-decoration="none" x="456" y="375">Finished</text></g></g></g></svg>