<svg version="1.1" xmlns="http://www.w3.org/2000/svg" xmlns:xlink="http://www.w3.org/1999/xlink" width="335.14111328125" height="420"><defs/><g><g transform="translate(-260,-159) scale(1,1)"><rect fill="#C0C0C0" stroke="none" x="277" y="176" width="315.14111328125" height="400" opacity="0.2"/></g><g transform="translate(-260,-159) scale(1,1)"><rect fill="#ffffff" stroke="none" x="270" y="169" width="315.14111328125" height="400"/></g><g transform="translate(-260,-159) scale(1,1)"><path fill="none" stroke="#000000" d="M 270 169 L 585.14111328125 169 L 585.14111328125 569 L 270 569 L 270 169 Z Z" stroke-miterlimit="10"/></g><g transform="translate(-260,-159) scale(1,1)"><path fill="none" stroke="#000000" d="M 270 194 L 585.14111328125 194" stroke-miterlimit="10"/></g><g transform="translate(-260,-159) scale(1,1)"><path fill="none" stroke="#000000" d="M 270 262 L 585.14111328125 262" stroke-miterlimit="10"/></g><g transform="translate(-260,-159) scale(1,1)"><g><path fill="none" stroke="none"/><text fill="#000000" stroke="none" font-family="Arial" font-size="13px" font-style="normal" font-weight="bold" text-decoration="none" x="334.7392578125" y="187">TransportManagementSystem</text></g></g><g transform="translate(-260,-159) scale(1,1)"><g><path fill="none" stroke="none"/><text fill="#000000" stroke="none" font-family="Arial" font-size="13px" font-style="normal" font-weight="normal" text-decoration="none" x="275" y="210">-vSystem: VehicleSystem {readOnly}</text></g></g><g transform="translate(-260,-159) scale(1,1)"><g><path fill="none" stroke="none"/><text fill="#000000" stroke="none" font-family="Arial" font-size="13px" font-style="normal" font-weight="normal" text-decoration="none" x="275" y="225">-aSystem: AuthorizationSystem {readOnly}</text></g></g><g transform="translate(-260,-159) scale(1,1)"><g><path fill="none" stroke="none"/><text fill="#000000" stroke="none" font-family="Arial" font-size="13px" font-style="normal" font-weight="normal" text-decoration="none" x="275" y="240">-tSystem: TransportationSystem {readOnly}</text></g></g><g transform="translate(-260,-159) scale(1,1)"><g><path fill="none" stroke="none"/><text fill="#000000" stroke="none" font-family="Arial" font-size="13px" font-style="normal" font-weight="normal" text-decoration="none" x="275" y="255">-currentUser: User[0..1]</text></g></g><g transform="translate(-260,-159) scale(1,1)"><g><path fill="none" stroke="none"/><text fill="#000000" stroke="none" font-family="Arial" font-size="13px" font-style="normal" font-weight="normal" text-decoration="none" x="275" y="278">+StartMenu()</text></g></g><g transform="translate(-260,-159) scale(1,1)"><g><path fill="none" stroke="none"/><text fill="#000000" stroke="none" font-family="Arial" font-size="13px" font-style="normal" font-weight="normal" text-decoration="none" x="275" y="293">#Registration()</text></g></g><g transform="translate(-260,-159) scale(1,1)"><g><path fill="none" stroke="none"/><text fill="#000000" stroke="none" font-family="Arial" font-size="13px" font-style="normal" font-weight="normal" text-decoration="none" x="275" y="308">#ShowUsers()</text></g></g><g transform="translate(-260,-159) scale(1,1)"><g><path fill="none" stroke="none"/><text fill="#000000" stroke="none" font-family="Arial" font-size="13px" font-style="normal" font-weight="normal" text-decoration="none" x="275" y="323">#Authorization()</text></g></g><g transform="translate(-260,-159) scale(1,1)"><g><path fill="none" stroke="none"/><text fill="#000000" stroke="none" font-family="Arial" font-size="13px" font-style="normal" font-weight="normal" text-decoration="none" x="275" y="338">#Menu()</text></g></g><g transform="translate(-260,-159) scale(1,1)"><g><path fill="none" stroke="none"/><text fill="#000000" stroke="none" font-family="Arial" font-size="13px" font-style="normal" font-weight="normal" text-decoration="none" x="275" y="353">#DispatcherMenu()</text></g></g><g transform="translate(-260,-159) scale(1,1)"><g><path fill="none" stroke="none"/><text fill="#000000" stroke="none" font-family="Arial" font-size="13px" font-style="normal" font-weight="normal" text-decoration="none" x="275" y="368">#ShowLists()</text></g></g><g transform="translate(-260,-159) scale(1,1)"><g><path fill="none" stroke="none"/><text fill="#000000" stroke="none" font-family="Arial" font-size="13px" font-style="normal" font-weight="normal" text-decoration="none" x="275" y="383">#CreateTransportation()</text></g></g><g transform="translate(-260,-159) scale(1,1)"><g><path fill="none" stroke="none"/><text fill="#000000" stroke="none" font-family="Arial" font-size="13px" font-style="normal" font-weight="normal" text-decoration="none" x="275" y="398">#EditTransportation()</text></g></g><g transform="translate(-260,-159) scale(1,1)"><g><path fill="none" stroke="none"/><text fill="#000000" stroke="none" font-family="Arial" font-size="13px" font-style="normal" font-weight="normal" text-decoration="none" x="275" y="413">#AddToTransportation(transportation: Transportation)</text></g></g><g transform="translate(-260,-159) scale(1,1)"><g><path fill="none" stroke="none"/><text fill="#000000" stroke="none" font-family="Arial" font-size="13px" font-style="normal" font-weight="normal" text-decoration="none" x="275" y="428">#StartTransportation(t: Transportation)</text></g></g><g transform="translate(-260,-159) scale(1,1)"><g><path fill="none" stroke="none"/><text fill="#000000" stroke="none" font-family="Arial" font-size="13px" font-style="normal" font-weight="normal" text-decoration="none" x="275" y="443">#DelTransportation()</text></g></g><g transform="translate(-260,-159) scale(1,1)"><g><path fill="none" stroke="none"/><text fill="#000000" stroke="none" font-family="Arial" font-size="13px" font-style="normal" font-weight="normal" text-decoration="none" x="275" y="458">#CancelTransportation()</text></g></g><g transform="translate(-260,-159) scale(1,1)"><g><path fill="none" stroke="none"/><text fill="#000000" stroke="none" font-family="Arial" font-size="13px" font-style="normal" font-weight="normal" text-decoration="none" x="275" y="473">#OtherFuntioncs()</text></g></g><g transform="translate(-260,-159) scale(1,1)"><g><path fill="none" stroke="none"/><text fill="#000000" stroke="none" font-family="Arial" font-size="13px" font-style="normal" font-weight="normal" text-decoration="none" x="275" y="488">#AddVehicle()</text></g></g><g transform="translate(-260,-159) scale(1,1)"><g><path fill="none" stroke="none"/><text fill="#000000" stroke="none" font-family="Arial" font-size="13px" font-style="normal" font-weight="normal" text-decoration="none" x="275" y="503">#DelVehicle()</text></g></g><g transform="translate(-260,-159) scale(1,1)"><g><path fill="none" stroke="none"/><text fill="#000000" stroke="none" font-family="Arial" font-size="13px" font-style="normal" font-weight="normal" text-decoration="none" x="275" y="518">#SetVehicleForDriver()</text></g></g><g transform="translate(-260,-159) scale(1,1)"><g><path fill="none" stroke="none"/><text fill="#000000" stroke="none" font-family="Arial" font-size="13px" font-style="normal" font-weight="normal" text-decoration="none" x="275" y="533">#UnsetVehicleForDriver()</text></g></g><g transform="translate(-260,-159) scale(1,1)"><g><path fill="none" stroke="none"/><text fill="#000000" stroke="none" font-family="Arial" font-size="13px" font-style="normal" font-weight="normal" text-decoration="none" x="275" y="548">#DriverMenu()</text></g></g><g transform="translate(-260,-159) scale(1,1)"><g><path fill="none" stroke="none"/><text fill="#000000" stroke="none" font-family="Arial" font-size="13px" font-style="normal" font-weight="normal" text-decoration="none" x="275" y="563">#Move()</text></g></g></g></svg>