<svg version="1.1" xmlns="http://www.w3.org/2000/svg" xmlns:xlink="http://www.w3.org/1999/xlink" width="397.6083984375" height="255"><defs/><g><g transform="translate(-601,-264) scale(1,1)"><rect fill="#C0C0C0" stroke="none" x="618" y="281" width="377.6083984375" height="235" opacity="0.2"/></g><g transform="translate(-601,-264) scale(1,1)"><rect fill="#ffffff" stroke="none" x="611" y="274" width="377.6083984375" height="235"/></g><g transform="translate(-601,-264) scale(1,1)"><path fill="none" stroke="#000000" d="M 611 274 L 988.6083984375 274 L 988.6083984375 509 L 611 509 L 611 274 Z Z" stroke-miterlimit="10"/></g><g transform="translate(-601,-264) scale(1,1)"><path fill="none" stroke="#000000" d="M 611 299 L 988.6083984375 299" stroke-miterlimit="10"/></g><g transform="translate(-601,-264) scale(1,1)"><path fill="none" stroke="#000000" d="M 611 352 L 988.6083984375 352" stroke-miterlimit="10"/></g><g transform="translate(-601,-264) scale(1,1)"><g><path fill="none" stroke="none"/><text fill="#000000" stroke="none" font-family="Arial" font-size="13px" font-style="normal" font-weight="bold" text-decoration="none" x="754.301025390625" y="292">Transportation</text></g></g><g transform="translate(-601,-264) scale(1,1)"><g><path fill="none" stroke="none"/><text fill="#000000" stroke="none" font-family="Arial" font-size="13px" font-style="normal" font-weight="normal" text-decoration="none" x="616" y="315">#dTList: DirectTransportation[0..*] {ordered}</text></g></g><g transform="translate(-601,-264) scale(1,1)"><g><path fill="none" stroke="none"/><text fill="#000000" stroke="none" font-family="Arial" font-size="13px" font-style="normal" font-weight="normal" text-decoration="none" x="616" y="330">#status: Status</text></g></g><g transform="translate(-601,-264) scale(1,1)"><g><path fill="none" stroke="none"/><text fill="#000000" stroke="none" font-family="Arial" font-size="13px" font-style="normal" font-weight="normal" text-decoration="none" x="616" y="345">#name: string</text></g></g><g transform="translate(-601,-264) scale(1,1)"><g><path fill="none" stroke="none"/><text fill="#000000" stroke="none" font-family="Arial" font-size="13px" font-style="normal" font-weight="normal" text-decoration="none" x="616" y="368">+GetStatus(): Status</text></g></g><g transform="translate(-601,-264) scale(1,1)"><g><path fill="none" stroke="none"/><text fill="#000000" stroke="none" font-family="Arial" font-size="13px" font-style="normal" font-weight="normal" text-decoration="none" x="616" y="383">+ShowObject()</text></g></g><g transform="translate(-601,-264) scale(1,1)"><g><path fill="none" stroke="none"/><text fill="#000000" stroke="none" font-family="Arial" font-size="13px" font-style="normal" font-weight="normal" text-decoration="none" x="616" y="398">+StartTransportation(): bool</text></g></g><g transform="translate(-601,-264) scale(1,1)"><g><path fill="none" stroke="none"/><text fill="#000000" stroke="none" font-family="Arial" font-size="13px" font-style="normal" font-weight="normal" text-decoration="none" x="616" y="413">+Cancel(): bool</text></g></g><g transform="translate(-601,-264) scale(1,1)"><g><path fill="none" stroke="none"/><text fill="#000000" stroke="none" font-family="Arial" font-size="13px" font-style="normal" font-weight="normal" text-decoration="none" x="616" y="428">+IsEmpty(): bool</text></g></g><g transform="translate(-601,-264) scale(1,1)"><g><path fill="none" stroke="none"/><text fill="#000000" stroke="none" font-family="Arial" font-size="13px" font-style="normal" font-weight="normal" text-decoration="none" x="616" y="443">+GetLastPoint(): Point[0..1]</text></g></g><g transform="translate(-601,-264) scale(1,1)"><g><path fill="none" stroke="none"/><text fill="#000000" stroke="none" font-family="Arial" font-size="13px" font-style="normal" font-weight="normal" text-decoration="none" x="616" y="458">+HasDTransportationWithVeh(dT: DirectTransportation): int[0..1]</text></g></g><g transform="translate(-601,-264) scale(1,1)"><g><path fill="none" stroke="none"/><text fill="#000000" stroke="none" font-family="Arial" font-size="13px" font-style="normal" font-weight="normal" text-decoration="none" x="616" y="473">+AddToEndDT(dT: DirectTransportation): bool</text></g></g><g transform="translate(-601,-264) scale(1,1)"><g><path fill="none" stroke="none"/><text fill="#000000" stroke="none" font-family="Arial" font-size="13px" font-style="normal" font-weight="normal" text-decoration="none" x="616" y="488">+DelLastDT(): bool</text></g></g><g transform="translate(-601,-264) scale(1,1)"><g><path fill="none" stroke="none"/><text fill="#000000" stroke="none" font-family="Arial" font-size="13px" font-style="normal" font-weight="normal" text-decoration="none" x="616" y="503">+StartNextDT()</text></g></g></g></svg>