<svg version="1.1" xmlns="http://www.w3.org/2000/svg" xmlns:xlink="http://www.w3.org/1999/xlink" width="387.287109375" height="107"><defs/><g><g transform="translate(-477,-236) scale(1,1)"><rect fill="#C0C0C0" stroke="none" x="494" y="253" width="367.287109375" height="87" opacity="0.2"/></g><g transform="translate(-477,-236) scale(1,1)"><rect fill="#ffffff" stroke="none" x="487" y="246" width="367.287109375" height="87"/></g><g transform="translate(-477,-236) scale(1,1)"><path fill="none" stroke="#000000" d="M 487 246 L 854.287109375 246 L 854.287109375 333 L 487 333 L 487 246 Z Z" stroke-miterlimit="10"/></g><g transform="translate(-477,-236) scale(1,1)"><path fill="none" stroke="#000000" d="M 487 271 L 854.287109375 271" stroke-miterlimit="10"/></g><g transform="translate(-477,-236) scale(1,1)"><path fill="none" stroke="#000000" d="M 487 281 L 854.287109375 281" stroke-miterlimit="10"/></g><g transform="translate(-477,-236) scale(1,1)"><g><path fill="none" stroke="none"/><text fill="#000000" stroke="none" font-family="Arial" font-size="13px" font-style="normal" font-weight="bold" text-decoration="none" x="602.015869140625" y="264">TransportationSystem</text></g></g><g transform="translate(-477,-236) scale(1,1)"><g><path fill="none" stroke="none"/><text fill="#000000" stroke="none" font-family="Arial" font-size="13px" font-style="normal" font-weight="normal" text-decoration="none" x="492" y="297">+AddObject(obj: UniqueObject): int</text></g></g><g transform="translate(-477,-236) scale(1,1)"><g><path fill="none" stroke="none"/><text fill="#000000" stroke="none" font-family="Arial" font-size="13px" font-style="normal" font-weight="normal" text-decoration="none" x="492" y="312">+ShowObjects()</text></g></g><g transform="translate(-477,-236) scale(1,1)"><g><path fill="none" stroke="none"/><text fill="#000000" stroke="none" font-family="Arial" font-size="13px" font-style="normal" font-weight="normal" text-decoration="none" x="492" y="327">+HasTransportationWithVeh(veh: Vehicle, exceptions: int[0..*])</text></g></g></g></svg>