<svg version="1.1" xmlns="http://www.w3.org/2000/svg" xmlns:xlink="http://www.w3.org/1999/xlink" width="115.3408203125" height="120"><defs/><g><g transform="translate(-626,-216) scale(1,1)"><rect fill="#C0C0C0" stroke="none" x="643" y="233" width="95.3408203125" height="100" opacity="0.2"/></g><g transform="translate(-626,-216) scale(1,1)"><rect fill="#ffffff" stroke="none" x="636" y="226" width="95.3408203125" height="100"/></g><g transform="translate(-626,-216) scale(1,1)"><path fill="none" stroke="#000000" d="M 636 226 L 731.3408203125 226 L 731.3408203125 326 L 636 326 L 636 226 Z Z" stroke-miterlimit="10"/></g><g transform="translate(-626,-216) scale(1,1)"><path fill="none" stroke="#000000" d="M 636 251 L 731.3408203125 251" stroke-miterlimit="10"/></g><g transform="translate(-626,-216) scale(1,1)"><path fill="none" stroke="#000000" d="M 636 274 L 731.3408203125 274" stroke-miterlimit="10"/></g><g transform="translate(-626,-216) scale(1,1)"><g><path fill="none" stroke="none"/><text fill="#000000" stroke="none" font-family="Arial" font-size="13px" font-style="normal" font-weight="bold" text-decoration="none" x="641.417236328125" y="244">UniqueObject</text></g></g><g transform="translate(-626,-216) scale(1,1)"><g><path fill="none" stroke="none"/><text fill="#000000" stroke="none" font-family="Arial" font-size="13px" font-style="normal" font-weight="normal" text-decoration="none" x="641" y="267">#id: int</text></g></g><g transform="translate(-626,-216) scale(1,1)"><g><path fill="none" stroke="none"/><text fill="#000000" stroke="none" font-family="Arial" font-size="13px" font-style="italic" font-weight="normal" text-decoration="none" x="641" y="290">+ShowObject()</text></g></g><g transform="translate(-626,-216) scale(1,1)"><g><path fill="none" stroke="none"/><text fill="#000000" stroke="none" font-family="Arial" font-size="13px" font-style="normal" font-weight="normal" text-decoration="none" x="641" y="305">+SetID(id: int)</text></g></g><g transform="translate(-626,-216) scale(1,1)"><g><path fill="none" stroke="none"/><text fill="#000000" stroke="none" font-family="Arial" font-size="13px" font-style="normal" font-weight="normal" text-decoration="none" x="641" y="320">+GetID(): int</text></g></g></g></svg>