<svg version="1.1" xmlns="http://www.w3.org/2000/svg" xmlns:xlink="http://www.w3.org/1999/xlink" width="349.1630859375" height="150"><defs/><g><g transform="translate(-409,-146) scale(1,1)"><rect fill="#C0C0C0" stroke="none" x="426" y="163" width="329.1630859375" height="130" opacity="0.2"/></g><g transform="translate(-409,-146) scale(1,1)"><rect fill="#ffffff" stroke="none" x="419" y="156" width="329.1630859375" height="130"/></g><g transform="translate(-409,-146) scale(1,1)"><path fill="none" stroke="#000000" d="M 419 156 L 748.1630859375 156 L 748.1630859375 286 L 419 286 L 419 156 Z Z" stroke-miterlimit="10"/></g><g transform="translate(-409,-146) scale(1,1)"><path fill="none" stroke="#000000" d="M 419 181 L 748.1630859375 181" stroke-miterlimit="10"/></g><g transform="translate(-409,-146) scale(1,1)"><path fill="none" stroke="#000000" d="M 419 219 L 748.1630859375 219" stroke-miterlimit="10"/></g><g transform="translate(-409,-146) scale(1,1)"><g><path fill="none" stroke="none"/><text fill="#000000" stroke="none" font-family="Arial" font-size="13px" font-style="normal" font-weight="bold" text-decoration="none" x="518.203857421875" y="174">UniqueObjectSystem</text></g></g><g transform="translate(-409,-146) scale(1,1)"><g><path fill="none" stroke="none"/><text fill="#000000" stroke="none" font-family="Arial" font-size="13px" font-style="normal" font-weight="normal" text-decoration="none" x="424" y="197">#uniqueObjectList: UniqueObject[0..*] {ordered, unique}</text></g></g><g transform="translate(-409,-146) scale(1,1)"><g><path fill="none" stroke="none"/><text fill="#000000" stroke="none" font-family="Arial" font-size="13px" font-style="normal" font-weight="normal" text-decoration="none" x="424" y="212">#counter: int</text></g></g><g transform="translate(-409,-146) scale(1,1)"><g><path fill="none" stroke="none"/><text fill="#000000" stroke="none" font-family="Arial" font-size="13px" font-style="italic" font-weight="normal" text-decoration="none" x="424" y="235">+AddObject(obj: UniqueObject): int</text></g></g><g transform="translate(-409,-146) scale(1,1)"><g><path fill="none" stroke="none"/><text fill="#000000" stroke="none" font-family="Arial" font-size="13px" font-style="normal" font-weight="normal" text-decoration="none" x="424" y="250">+DelObject(id: int): bool</text></g></g><g transform="translate(-409,-146) scale(1,1)"><g><path fill="none" stroke="none"/><text fill="#000000" stroke="none" font-family="Arial" font-size="13px" font-style="normal" font-weight="normal" text-decoration="none" x="424" y="265">+FindObject(id: int): UniqueObject[0..1]</text></g></g><g transform="translate(-409,-146) scale(1,1)"><g><path fill="none" stroke="none"/><text fill="#000000" stroke="none" font-family="Arial" font-size="13px" font-style="italic" font-weight="normal" text-decoration="none" x="424" y="280">+ShowObjects()</text></g></g></g></svg>