<svg version="1.1" xmlns="http://www.w3.org/2000/svg" xmlns:xlink="http://www.w3.org/1999/xlink" width="1119.10205078125" height="708"><defs/><g><g transform="translate(-302,-118) scale(1,1)"><rect fill="#C0C0C0" stroke="none" x="559" y="135" width="672" height="688" opacity="0.2"/></g><g transform="translate(-302,-118) scale(1,1)"><rect fill="#ffffff" stroke="none" x="552" y="128" width="672" height="688"/></g><g transform="translate(-302,-118) scale(1,1)"><path fill="none" stroke="#000000" d="M 552 128 L 1224 128 L 1224 816 L 552 816 L 552 128 Z Z" stroke-miterlimit="10"/></g><g transform="translate(-302,-118) scale(1,1)"><g><path fill="none" stroke="none"/><text fill="#000000" stroke="none" font-family="Arial" font-size="13px" font-style="normal" font-weight="bold" text-decoration="none" x="781.73388671875" y="146">Система управления транспорта</text></g></g><g transform="translate(-302,-118) scale(1,1)"><path fill="#C0C0C0" stroke="none" d="M 1031 200 C 1031 190.6111584 1067.936504 183 1113.5 183 C 1159.063496 183 1196 190.6111584 1196 200 C 1196 209.3888416 1159.063496 217 1113.5 217 C 1067.936504 217 1031 209.3888416 1031 200 Z" opacity="0.2"/></g><g transform="translate(-302,-118) scale(1,1)"><path fill="#ffffff" stroke="none" d="M 1024 193 C 1024 183.6111584 1060.936504 176 1106.5 176 C 1152.063496 176 1189 183.6111584 1189 193 C 1189 202.3888416 1152.063496 210 1106.5 210 C 1060.936504 210 1024 202.3888416 1024 193 Z"/></g><g transform="translate(-302,-118) scale(1,1)"><path fill="none" stroke="#000000" d="M 1024 193 C 1024 183.6111584 1060.936504 176 1106.5 176 C 1152.063496 176 1189 183.6111584 1189 193 C 1189 202.3888416 1152.063496 210 1106.5 210 C 1060.936504 210 1024 202.3888416 1024 193 Z" stroke-miterlimit="10"/></g><g transform="translate(-302,-118) scale(1,1)"><g><path fill="none" stroke="none"/><text fill="#000000" stroke="none" font-family="Arial" font-size="13px" font-style="normal" font-weight="bold" text-decoration="none" x="1052.776611328125" y="198.5">Войти в систему</text></g></g><g transform="translate(-302,-118) scale(1,1)"><path fill="#C0C0C0" stroke="none" d="M 631 200 C 631 190.6111584 697.7095648 183 780 183 C 862.2904352 183 929 190.6111584 929 200 C 929 209.3888416 862.2904352 217 780 217 C 697.7095648 217 631 209.3888416 631 200 Z" opacity="0.2"/></g><g transform="translate(-302,-118) scale(1,1)"><path fill="#ffffff" stroke="none" d="M 624 193 C 624 183.6111584 690.7095648 176 773 176 C 855.2904352 176 922 183.6111584 922 193 C 922 202.3888416 855.2904352 210 773 210 C 690.7095648 210 624 202.3888416 624 193 Z"/></g><g transform="translate(-302,-118) scale(1,1)"><path fill="none" stroke="#000000" d="M 624 193 C 624 183.6111584 690.7095648 176 773 176 C 855.2904352 176 922 183.6111584 922 193 C 922 202.3888416 855.2904352 210 773 210 C 690.7095648 210 624 202.3888416 624 193 Z" stroke-miterlimit="10"/></g><g transform="translate(-302,-118) scale(1,1)"><g><path fill="none" stroke="none"/><text fill="#000000" stroke="none" font-family="Arial" font-size="13px" font-style="normal" font-weight="bold" text-decoration="none" x="672.2373046875" y="198.5">Зарегистрироваться в системе</text></g></g><g transform="translate(-302,-118) scale(1,1)"><path fill="#C0C0C0" stroke="none" d="M 575 280 C 575 270.6111584 604.3253456 263 640.5 263 C 676.6746544 263 706 270.6111584 706 280 C 706 289.3888416 676.6746544 297 640.5 297 C 604.3253456 297 575 289.3888416 575 280 Z" opacity="0.2"/></g><g transform="translate(-302,-118) scale(1,1)"><path fill="#ffffff" stroke="none" d="M 568 273 C 568 263.6111584 597.3253456 256 633.5 256 C 669.6746544 256 699 263.6111584 699 273 C 699 282.3888416 669.6746544 290 633.5 290 C 597.3253456 290 568 282.3888416 568 273 Z"/></g><g transform="translate(-302,-118) scale(1,1)"><path fill="none" stroke="#000000" d="M 568 273 C 568 263.6111584 597.3253456 256 633.5 256 C 669.6746544 256 699 263.6111584 699 273 C 699 282.3888416 669.6746544 290 633.5 290 C 597.3253456 290 568 282.3888416 568 273 Z" stroke-miterlimit="10"/></g><g transform="translate(-302,-118) scale(1,1)"><g><path fill="none" stroke="none"/><text fill="#000000" stroke="none" font-family="Arial" font-size="13px" font-style="normal" font-weight="bold" text-decoration="none" x="591.54833984375" y="278.5">Добавить ТС</text></g></g><g transform="translate(-302,-118) scale(1,1)"><path fill="#C0C0C0" stroke="none" d="M 767 280 C 767 270.6111584 793.4151968 263 826 263 C 858.5848032 263 885 270.6111584 885 280 C 885 289.3888416 858.5848032 297 826 297 C 793.4151968 297 767 289.3888416 767 280 Z" opacity="0.2"/></g><g transform="translate(-302,-118) scale(1,1)"><path fill="#ffffff" stroke="none" d="M 760 273 C 760 263.6111584 786.4151968 256 819 256 C 851.5848032 256 878 263.6111584 878 273 C 878 282.3888416 851.5848032 290 819 290 C 786.4151968 290 760 282.3888416 760 273 Z"/></g><g transform="translate(-302,-118) scale(1,1)"><path fill="none" stroke="#000000" d="M 760 273 C 760 263.6111584 786.4151968 256 819 256 C 851.5848032 256 878 263.6111584 878 273 C 878 282.3888416 851.5848032 290 819 290 C 786.4151968 290 760 282.3888416 760 273 Z" stroke-miterlimit="10"/></g><g transform="translate(-302,-118) scale(1,1)"><g><path fill="none" stroke="none"/><text fill="#000000" stroke="none" font-family="Arial" font-size="13px" font-style="normal" font-weight="bold" text-decoration="none" x="781.850341796875" y="278.5">Удалить ТС</text></g></g><g transform="translate(-302,-118) scale(1,1)"><path fill="#C0C0C0" stroke="none" d="M 935 280 C 935 270.6111584 996.3369824 263 1072 263 C 1147.6630176 263 1209 270.6111584 1209 280 C 1209 289.3888416 1147.6630176 297 1072 297 C 996.3369824 297 935 289.3888416 935 280 Z" opacity="0.2"/></g><g transform="translate(-302,-118) scale(1,1)"><path fill="#ffffff" stroke="none" d="M 928 273 C 928 263.6111584 989.3369824 256 1065 256 C 1140.6630176 256 1202 263.6111584 1202 273 C 1202 282.3888416 1140.6630176 290 1065 290 C 989.3369824 290 928 282.3888416 928 273 Z"/></g><g transform="translate(-302,-118) scale(1,1)"><path fill="none" stroke="#000000" d="M 928 273 C 928 263.6111584 989.3369824 256 1065 256 C 1140.6630176 256 1202 263.6111584 1202 273 C 1202 282.3888416 1140.6630176 290 1065 290 C 989.3369824 290 928 282.3888416 928 273 Z" stroke-miterlimit="10"/></g><g transform="translate(-302,-118) scale(1,1)"><g><path fill="none" stroke="none"/><text fill="#000000" stroke="none" font-family="Arial" font-size="13px" font-style="normal" font-weight="bold" text-decoration="none" x="972.600341796875" y="278.5">Получить информацию о ТС</text></g></g><g transform="translate(-302,-118) scale(1,1)"><path fill="#C0C0C0" stroke="none" d="M 599 384 C 599 374.6111584 652.5019664 367 718.5 367 C 784.4980336 367 838 374.6111584 838 384 C 838 393.3888416 784.4980336 401 718.5 401 C 652.5019664 401 599 393.3888416 599 384 Z" opacity="0.2"/></g><g transform="translate(-302,-118) scale(1,1)"><path fill="#ffffff" stroke="none" d="M 592 377 C 592 367.6111584 645.5019664 360 711.5 360 C 777.4980336 360 831 367.6111584 831 377 C 831 386.3888416 777.4980336 394 711.5 394 C 645.5019664 394 592 386.3888416 592 377 Z"/></g><g transform="translate(-302,-118) scale(1,1)"><path fill="none" stroke="#000000" d="M 592 377 C 592 367.6111584 645.5019664 360 711.5 360 C 777.4980336 360 831 367.6111584 831 377 C 831 386.3888416 777.4980336 394 711.5 394 C 645.5019664 394 592 386.3888416 592 377 Z" stroke-miterlimit="10"/></g><g transform="translate(-302,-118) scale(1,1)"><g><path fill="none" stroke="none"/><text fill="#000000" stroke="none" font-family="Arial" font-size="13px" font-style="normal" font-weight="bold" text-decoration="none" x="631.51953125" y="382.5">Присвоить водителю ТС</text></g></g><g transform="translate(-302,-118) scale(1,1)"><path fill="#C0C0C0" stroke="none" d="M 999 384 C 999 374.6111584 1047.129384 367 1106.5 367 C 1165.870616 367 1214 374.6111584 1214 384 C 1214 393.3888416 1165.870616 401 1106.5 401 C 1047.129384 401 999 393.3888416 999 384 Z" opacity="0.2"/></g><g transform="translate(-302,-118) scale(1,1)"><path fill="#ffffff" stroke="none" d="M 992 377 C 992 367.6111584 1040.129384 360 1099.5 360 C 1158.870616 360 1207 367.6111584 1207 377 C 1207 386.3888416 1158.870616 394 1099.5 394 C 1040.129384 394 992 386.3888416 992 377 Z"/></g><g transform="translate(-302,-118) scale(1,1)"><path fill="none" stroke="#000000" d="M 992 377 C 992 367.6111584 1040.129384 360 1099.5 360 C 1158.870616 360 1207 367.6111584 1207 377 C 1207 386.3888416 1158.870616 394 1099.5 394 C 1040.129384 394 992 386.3888416 992 377 Z" stroke-miterlimit="10"/></g><g transform="translate(-302,-118) scale(1,1)"><g><path fill="none" stroke="none"/><text fill="#000000" stroke="none" font-family="Arial" font-size="13px" font-style="normal" font-weight="bold" text-decoration="none" x="1028.028564453125" y="382.5">Отнять у водителя ТС</text></g></g><g transform="translate(-302,-118) scale(1,1)"><path fill="#C0C0C0" stroke="none" d="M 599 536 C 599 526.6111584 655.4121152 519 725 519 C 794.5878848 519 851 526.6111584 851 536 C 851 545.3888416 794.5878848 553 725 553 C 655.4121152 553 599 545.3888416 599 536 Z" opacity="0.2"/></g><g transform="translate(-302,-118) scale(1,1)"><path fill="#ffffff" stroke="none" d="M 592 529 C 592 519.6111584 648.4121152 512 718 512 C 787.5878848 512 844 519.6111584 844 529 C 844 538.3888416 787.5878848 546 718 546 C 648.4121152 546 592 538.3888416 592 529 Z"/></g><g transform="translate(-302,-118) scale(1,1)"><path fill="none" stroke="#000000" d="M 592 529 C 592 519.6111584 648.4121152 512 718 512 C 787.5878848 512 844 519.6111584 844 529 C 844 538.3888416 787.5878848 546 718 546 C 648.4121152 546 592 538.3888416 592 529 Z" stroke-miterlimit="10"/></g><g transform="translate(-302,-118) scale(1,1)"><g><path fill="none" stroke="none"/><text fill="#000000" stroke="none" font-family="Arial" font-size="13px" font-style="normal" font-weight="bold" text-decoration="none" x="656.443603515625" y="534.5">Создать перевозку</text></g></g><g transform="translate(-302,-118) scale(1,1)"><path fill="#C0C0C0" stroke="none" d="M 591 608 C 591 598.6111584 646.7405424 591 715.5 591 C 784.2594576 591 840 598.6111584 840 608 C 840 617.3888416 784.2594576 625 715.5 625 C 646.7405424 625 591 617.3888416 591 608 Z" opacity="0.2"/></g><g transform="translate(-302,-118) scale(1,1)"><path fill="#ffffff" stroke="none" d="M 584 601 C 584 591.6111584 639.7405424 584 708.5 584 C 777.2594576 584 833 591.6111584 833 601 C 833 610.3888416 777.2594576 618 708.5 618 C 639.7405424 618 584 610.3888416 584 601 Z"/></g><g transform="translate(-302,-118) scale(1,1)"><path fill="none" stroke="#000000" d="M 584 601 C 584 591.6111584 639.7405424 584 708.5 584 C 777.2594576 584 833 591.6111584 833 601 C 833 610.3888416 777.2594576 618 708.5 618 C 639.7405424 618 584 610.3888416 584 601 Z" stroke-miterlimit="10"/></g><g transform="translate(-302,-118) scale(1,1)"><g><path fill="none" stroke="none"/><text fill="#000000" stroke="none" font-family="Arial" font-size="13px" font-style="normal" font-weight="bold" text-decoration="none" x="625.06640625" y="606.5">Редактировать перевозку</text></g></g><g transform="translate(-302,-118) scale(1,1)"><path fill="#C0C0C0" stroke="none" d="M 935 624 C 935 614.6111584 976.8613712 607 1028.5 607 C 1080.1386288 607 1122 614.6111584 1122 624 C 1122 633.3888416 1080.1386288 641 1028.5 641 C 976.8613712 641 935 633.3888416 935 624 Z" opacity="0.2"/></g><g transform="translate(-302,-118) scale(1,1)"><path fill="#ffffff" stroke="none" d="M 928 617 C 928 607.6111584 969.8613712 600 1021.5 600 C 1073.1386288 600 1115 607.6111584 1115 617 C 1115 626.3888416 1073.1386288 634 1021.5 634 C 969.8613712 634 928 626.3888416 928 617 Z"/></g><g transform="translate(-302,-118) scale(1,1)"><path fill="none" stroke="#000000" d="M 928 617 C 928 607.6111584 969.8613712 600 1021.5 600 C 1073.1386288 600 1115 607.6111584 1115 617 C 1115 626.3888416 1073.1386288 634 1021.5 634 C 969.8613712 634 928 626.3888416 928 617 Z" stroke-miterlimit="10"/></g><g transform="translate(-302,-118) scale(1,1)"><g><path fill="none" stroke="none"/><text fill="#000000" stroke="none" font-family="Arial" font-size="13px" font-style="normal" font-weight="bold" text-decoration="none" x="959.994384765625" y="622.5">Удалить перевозку</text></g></g><g transform="translate(-302,-118) scale(1,1)"><path fill="#C0C0C0" stroke="none" d="M 559 792 C 559 782.6111584 638.0217328 775 735.5 775 C 832.9782672 775 912 782.6111584 912 792 C 912 801.3888416 832.9782672 809 735.5 809 C 638.0217328 809 559 801.3888416 559 792 Z" opacity="0.2"/></g><g transform="translate(-302,-118) scale(1,1)"><path fill="#ffffff" stroke="none" d="M 552 785 C 552 775.6111584 631.0217328 768 728.5 768 C 825.9782672 768 905 775.6111584 905 785 C 905 794.3888416 825.9782672 802 728.5 802 C 631.0217328 802 552 794.3888416 552 785 Z"/></g><g transform="translate(-302,-118) scale(1,1)"><path fill="none" stroke="#000000" d="M 552 785 C 552 775.6111584 631.0217328 768 728.5 768 C 825.9782672 768 905 775.6111584 905 785 C 905 794.3888416 825.9782672 802 728.5 802 C 631.0217328 802 552 794.3888416 552 785 Z" stroke-miterlimit="10"/></g><g transform="translate(-302,-118) scale(1,1)"><g><path fill="none" stroke="none"/><text fill="#000000" stroke="none" font-family="Arial" font-size="13px" font-style="normal" font-weight="bold" text-decoration="none" x="608.12939453125" y="790.5">Получить информацию о перевозках</text></g></g><g transform="translate(-302,-118) scale(1,1)"><path fill="#C0C0C0" stroke="none" d="M 791 448 C 791 438.6111584 885.4679072 431 1002 431 C 1118.5320928 431 1213 438.6111584 1213 448 C 1213 457.3888416 1118.5320928 465 1002 465 C 885.4679072 465 791 457.3888416 791 448 Z" opacity="0.2"/></g><g transform="translate(-302,-118) scale(1,1)"><path fill="#ffffff" stroke="none" d="M 784 441 C 784 431.6111584 878.4679072 424 995 424 C 1111.5320928 424 1206 431.6111584 1206 441 C 1206 450.3888416 1111.5320928 458 995 458 C 878.4679072 458 784 450.3888416 784 441 Z"/></g><g transform="translate(-302,-118) scale(1,1)"><path fill="none" stroke="#000000" d="M 784 441 C 784 431.6111584 878.4679072 424 995 424 C 1111.5320928 424 1206 431.6111584 1206 441 C 1206 450.3888416 1111.5320928 458 995 458 C 878.4679072 458 784 450.3888416 784 441 Z" stroke-miterlimit="10"/></g><g transform="translate(-302,-118) scale(1,1)"><g><path fill="none" stroke="none"/><text fill="#000000" stroke="none" font-family="Arial" font-size="13px" font-style="normal" font-weight="bold" text-decoration="none" x="850.3115234375" y="446.5">Предоставить информацию о положении ТС</text></g></g><g transform="translate(-302,-118) scale(1,1)"><path fill="#C0C0C0" stroke="none" d="M 679 680 C 679 670.6111584 781.3029232 663 907.5 663 C 1033.6970768 663 1136 670.6111584 1136 680 C 1136 689.3888416 1033.6970768 697 907.5 697 C 781.3029232 697 679 689.3888416 679 680 Z" opacity="0.2"/></g><g transform="translate(-302,-118) scale(1,1)"><path fill="#ffffff" stroke="none" d="M 672 673 C 672 663.6111584 774.3029232 656 900.5 656 C 1026.6970768 656 1129 663.6111584 1129 673 C 1129 682.3888416 1026.6970768 690 900.5 690 C 774.3029232 690 672 682.3888416 672 673 Z"/></g><g transform="translate(-302,-118) scale(1,1)"><path fill="none" stroke="#000000" d="M 672 673 C 672 663.6111584 774.3029232 656 900.5 656 C 1026.6970768 656 1129 663.6111584 1129 673 C 1129 682.3888416 1026.6970768 690 900.5 690 C 774.3029232 690 672 682.3888416 672 673 Z" stroke-miterlimit="10"/></g><g transform="translate(-302,-118) scale(1,1)"><g><path fill="none" stroke="none"/><text fill="#000000" stroke="none" font-family="Arial" font-size="13px" font-style="normal" font-weight="bold" text-decoration="none" x="743.259033203125" y="678.5">Получить информацию об отдельной перевозке</text></g></g><g transform="translate(-302,-118) scale(1,1)"><path fill="#ffffff" stroke="none" d="M 417.80656711647725 177.68 C 417.80656711647725 172.886167936 421.69240944142274 169 426.48583984375 169 C 431.27927024607726 169 435.16511257102275 172.886167936 435.16511257102275 177.68 C 435.16511257102275 182.47383206400002 431.27927024607726 186.36 426.48583984375 186.36 C 421.69240944142274 186.36 417.80656711647725 182.47383206400002 417.80656711647725 177.68 Z"/></g><g transform="translate(-302,-118) scale(1,1)"><path fill="none" stroke="#000000" d="M 417.80656711647725 177.68 C 417.80656711647725 172.886167936 421.69240944142274 169 426.48583984375 169 C 431.27927024607726 169 435.16511257102275 172.886167936 435.16511257102275 177.68 C 435.16511257102275 182.47383206400002 431.27927024607726 186.36 426.48583984375 186.36 C 421.69240944142274 186.36 417.80656711647725 182.47383206400002 417.80656711647725 177.68 Z" stroke-miterlimit="10"/></g><g transform="translate(-302,-118) scale(1,1)"><path fill="none" stroke="#000000" d="M 426.48583984375 186.36 L 426.48583984375 203.64" stroke-miterlimit="10"/></g><g transform="translate(-302,-118) scale(1,1)"><path fill="none" stroke="#000000" d="M 417.29602166193183 192.84 L 435.67565802556817 192.84" stroke-miterlimit="10"/></g><g transform="translate(-302,-118) scale(1,1)"><path fill="none" stroke="#000000" d="M 426.48583984375 203.64 L 413.72220348011365 221" stroke-miterlimit="10"/></g><g transform="translate(-302,-118) scale(1,1)"><path fill="none" stroke="#000000" d="M 426.48583984375 203.64 L 439.24947620738635 221" stroke-miterlimit="10"/></g><g transform="translate(-302,-118) scale(1,1)"><g><path fill="none" stroke="none"/><text fill="#000000" stroke="none" font-family="Arial" font-size="13px" font-style="normal" font-weight="bold" text-decoration="none" x="316.5" y="240">Неавторизованный пользователь</text></g></g><g transform="translate(-302,-118) scale(1,1)"><path fill="#ffffff" stroke="none" d="M 1320.8717526633523 401.68 C 1320.8717526633523 396.886167936 1324.7575949882978 393 1329.551025390625 393 C 1334.3444557929522 393 1338.2302981178977 396.886167936 1338.2302981178977 401.68 C 1338.2302981178977 406.473832064 1334.3444557929522 410.36 1329.551025390625 410.36 C 1324.7575949882978 410.36 1320.8717526633523 406.473832064 1320.8717526633523 401.68 Z"/></g><g transform="translate(-302,-118) scale(1,1)"><path fill="none" stroke="#000000" d="M 1320.8717526633523 401.68 C 1320.8717526633523 396.886167936 1324.7575949882978 393 1329.551025390625 393 C 1334.3444557929522 393 1338.2302981178977 396.886167936 1338.2302981178977 401.68 C 1338.2302981178977 406.473832064 1334.3444557929522 410.36 1329.551025390625 410.36 C 1324.7575949882978 410.36 1320.8717526633523 406.473832064 1320.8717526633523 401.68 Z" stroke-miterlimit="10"/></g><g transform="translate(-302,-118) scale(1,1)"><path fill="none" stroke="#000000" d="M 1329.551025390625 410.36 L 1329.551025390625 427.64" stroke-miterlimit="10"/></g><g transform="translate(-302,-118) scale(1,1)"><path fill="none" stroke="#000000" d="M 1320.3612072088067 416.84 L 1338.7408435724433 416.84" stroke-miterlimit="10"/></g><g transform="translate(-302,-118) scale(1,1)"><path fill="none" stroke="#000000" d="M 1329.551025390625 427.64 L 1316.7873890269886 445" stroke-miterlimit="10"/></g><g transform="translate(-302,-118) scale(1,1)"><path fill="none" stroke="#000000" d="M 1329.551025390625 427.64 L 1342.3146617542614 445" stroke-miterlimit="10"/></g><g transform="translate(-302,-118) scale(1,1)"><g><path fill="none" stroke="none"/><text fill="#000000" stroke="none" font-family="Arial" font-size="13px" font-style="normal" font-weight="bold" text-decoration="none" x="1252.5" y="464">Транспортное средство</text></g></g><g transform="translate(-302,-118) scale(1,1)"><path fill="#ffffff" stroke="none" d="M 390.05998508522725 481.68 C 390.05998508522725 476.886167936 393.94582741017274 473 398.7392578125 473 C 403.53268821482726 473 407.41853053977275 476.886167936 407.41853053977275 481.68 C 407.41853053977275 486.473832064 403.53268821482726 490.36 398.7392578125 490.36 C 393.94582741017274 490.36 390.05998508522725 486.473832064 390.05998508522725 481.68 Z"/></g><g transform="translate(-302,-118) scale(1,1)"><path fill="none" stroke="#000000" d="M 390.05998508522725 481.68 C 390.05998508522725 476.886167936 393.94582741017274 473 398.7392578125 473 C 403.53268821482726 473 407.41853053977275 476.886167936 407.41853053977275 481.68 C 407.41853053977275 486.473832064 403.53268821482726 490.36 398.7392578125 490.36 C 393.94582741017274 490.36 390.05998508522725 486.473832064 390.05998508522725 481.68 Z" stroke-miterlimit="10"/></g><g transform="translate(-302,-118) scale(1,1)"><path fill="none" stroke="#000000" d="M 398.7392578125 490.36 L 398.7392578125 507.64" stroke-miterlimit="10"/></g><g transform="translate(-302,-118) scale(1,1)"><path fill="none" stroke="#000000" d="M 389.54943963068183 496.84 L 407.92907599431817 496.84" stroke-miterlimit="10"/></g><g transform="translate(-302,-118) scale(1,1)"><path fill="none" stroke="#000000" d="M 398.7392578125 507.64 L 385.97562144886365 525" stroke-miterlimit="10"/></g><g transform="translate(-302,-118) scale(1,1)"><path fill="none" stroke="#000000" d="M 398.7392578125 507.64 L 411.50289417613635 525" stroke-miterlimit="10"/></g><g transform="translate(-302,-118) scale(1,1)"><g><path fill="none" stroke="none"/><text fill="#000000" stroke="none" font-family="Arial" font-size="13px" font-style="normal" font-weight="bold" text-decoration="none" x="364.5" y="544">Диспетчер</text></g></g><g transform="translate(-302,-118) scale(1,1)"><path fill="#ffffff" stroke="none" d="M 1283.4447507102273 601.6800000000001 C 1283.4447507102273 596.8861679360001 1287.3305930351728 593 1292.1240234375 593 C 1296.9174538398272 593 1300.8032961647727 596.8861679360001 1300.8032961647727 601.6800000000001 C 1300.8032961647727 606.473832064 1296.9174538398272 610.36 1292.1240234375 610.36 C 1287.3305930351728 610.36 1283.4447507102273 606.473832064 1283.4447507102273 601.6800000000001 Z"/></g><g transform="translate(-302,-118) scale(1,1)"><path fill="none" stroke="#000000" d="M 1283.4447507102273 601.6800000000001 C 1283.4447507102273 596.8861679360001 1287.3305930351728 593 1292.1240234375 593 C 1296.9174538398272 593 1300.8032961647727 596.8861679360001 1300.8032961647727 601.6800000000001 C 1300.8032961647727 606.473832064 1296.9174538398272 610.36 1292.1240234375 610.36 C 1287.3305930351728 610.36 1283.4447507102273 606.473832064 1283.4447507102273 601.6800000000001 Z" stroke-miterlimit="10"/></g><g transform="translate(-302,-118) scale(1,1)"><path fill="none" stroke="#000000" d="M 1292.1240234375 610.36 L 1292.1240234375 627.64" stroke-miterlimit="10"/></g><g transform="translate(-302,-118) scale(1,1)"><path fill="none" stroke="#000000" d="M 1282.9342052556817 616.84 L 1301.3138416193183 616.84" stroke-miterlimit="10"/></g><g transform="translate(-302,-118) scale(1,1)"><path fill="none" stroke="#000000" d="M 1292.1240234375 627.64 L 1279.3603870738636 645" stroke-miterlimit="10"/></g><g transform="translate(-302,-118) scale(1,1)"><path fill="none" stroke="#000000" d="M 1292.1240234375 627.64 L 1304.8876598011364 645" stroke-miterlimit="10"/></g><g transform="translate(-302,-118) scale(1,1)"><g><path fill="none" stroke="none"/><text fill="#000000" stroke="none" font-family="Arial" font-size="13px" font-style="normal" font-weight="bold" text-decoration="none" x="1260.5" y="664">Водитель</text></g></g><g transform="translate(-302,-118) scale(1,1)"><path fill="none" stroke="#000000" d="M 542 202 L 623 199" stroke-miterlimit="10"/></g><g transform="translate(-302,-118) scale(1,1)"><path fill="none" stroke="#000000" d="M 542 221 L 640 232 L 880 232 L 1023 207" stroke-miterlimit="10"/></g><g transform="translate(-302,-118) scale(1,1)"><path fill="none" stroke="#000000" d="M 423 471 L 520 312 L 581 291" stroke-miterlimit="10"/></g><g transform="translate(-302,-118) scale(1,1)"><path fill="none" stroke="#000000" d="M 426 471 L 528 328 L 759 284" stroke-miterlimit="10"/></g><g transform="translate(-302,-118) scale(1,1)"><path fill="none" stroke="#000000" d="M 431 471 L 536 344 L 931 291" stroke-miterlimit="10"/></g><g transform="translate(-302,-118) scale(1,1)"><path fill="none" stroke="#000000" d="M 1247 433 L 1207 435" stroke-miterlimit="10"/></g><g transform="translate(-302,-118) scale(1,1)"><path fill="none" stroke="#000000" d="M 438 479 L 547 392 L 591 388" stroke-miterlimit="10"/></g><g transform="translate(-302,-118) scale(1,1)"><path fill="none" stroke="#000000" d="M 437 471 L 544 360 L 856 344 L 991 362" stroke-miterlimit="10"/></g><g transform="translate(-302,-118) scale(1,1)"><path fill="none" stroke="#000000" d="M 927 612 L 834 607" stroke-miterlimit="10" stroke-dasharray="3"/></g><g transform="translate(-302,-118) scale(1,1)"><path fill="none" stroke="#000000" d="M 844.3740107569927 603.342145326315 L 834 607 L 843.9220271987293 611.7490395100142" stroke-miterlimit="10"/></g><g transform="translate(-302,-118) scale(1,1)"><g><path fill="none" stroke="none"/><text fill="#000000" stroke="none" font-family="Arial" font-size="13px" font-style="normal" font-weight="normal" text-decoration="none" x="879.5" y="579">«extend»</text></g></g><g transform="translate(-302,-118) scale(1,1)"><path fill="none" stroke="#000000" d="M 728 767 L 728 728 L 844 691" stroke-miterlimit="10" stroke-dasharray="3"/></g><g transform="translate(-302,-118) scale(1,1)"><path fill="none" stroke="#000000" d="M 835.5971148422399 698.0986985444865 L 844 691 L 833.0387250450106 690.0778008018216" stroke-miterlimit="10"/></g><g transform="translate(-302,-118) scale(1,1)"><g><path fill="none" stroke="none"/><text fill="#000000" stroke="none" font-family="Arial" font-size="13px" font-style="normal" font-weight="normal" text-decoration="none" x="741.5" y="754">«include»</text></g></g><g transform="translate(-302,-118) scale(1,1)"><path fill="none" stroke="#000000" d="M 438 513 L 591 522" stroke-miterlimit="10"/></g><g transform="translate(-302,-118) scale(1,1)"><path fill="none" stroke="#000000" d="M 438 523 L 646 583" stroke-miterlimit="10"/></g><g transform="translate(-302,-118) scale(1,1)"><path fill="none" stroke="#000000" d="M 756 619 L 852 655" stroke-miterlimit="10" stroke-dasharray="3"/></g><g transform="translate(-302,-118) scale(1,1)"><path fill="none" stroke="#000000" d="M 841.0063306467393 655.3731409266999 L 852 655 L 843.962451370579 647.4901523297945" stroke-miterlimit="10"/></g><g transform="translate(-302,-118) scale(1,1)"><g><path fill="none" stroke="none"/><text fill="#000000" stroke="none" font-family="Arial" font-size="13px" font-style="normal" font-weight="normal" text-decoration="none" x="703.5" y="634">«include»</text></g></g><g transform="translate(-302,-118) scale(1,1)"><path fill="none" stroke="#000000" d="M 438 541 L 560 632 L 751 655" stroke-miterlimit="10"/></g><g transform="translate(-302,-118) scale(1,1)"><path fill="none" stroke="#000000" d="M 438 551 L 544 656 L 702 767" stroke-miterlimit="10"/></g><g transform="translate(-302,-118) scale(1,1)"><path fill="#C0C0C0" stroke="none" d="M 895 528 C 895 518.6111584 949.6212544 511 1017 511 C 1084.3787456 511 1139 518.6111584 1139 528 C 1139 537.3888416 1084.3787456 545 1017 545 C 949.6212544 545 895 537.3888416 895 528 Z" opacity="0.2"/></g><g transform="translate(-302,-118) scale(1,1)"><path fill="#ffffff" stroke="none" d="M 888 521 C 888 511.6111584 942.6212544 504 1010 504 C 1077.3787456 504 1132 511.6111584 1132 521 C 1132 530.3888416 1077.3787456 538 1010 538 C 942.6212544 538 888 530.3888416 888 521 Z"/></g><g transform="translate(-302,-118) scale(1,1)"><path fill="none" stroke="#000000" d="M 888 521 C 888 511.6111584 942.6212544 504 1010 504 C 1077.3787456 504 1132 511.6111584 1132 521 C 1132 530.3888416 1077.3787456 538 1010 538 C 942.6212544 538 888 530.3888416 888 521 Z" stroke-miterlimit="10"/></g><g transform="translate(-302,-118) scale(1,1)"><g><path fill="none" stroke="none"/><text fill="#000000" stroke="none" font-family="Arial" font-size="13px" font-style="normal" font-weight="bold" text-decoration="none" x="928.124755859375" y="526.5">Удалить часть перевозки</text></g></g><g transform="translate(-302,-118) scale(1,1)"><path fill="#C0C0C0" stroke="none" d="M 951 576 C 951 566.6111584 1008.7552608 559 1080 559 C 1151.2447392 559 1209 566.6111584 1209 576 C 1209 585.3888416 1151.2447392 593 1080 593 C 1008.7552608 593 951 585.3888416 951 576 Z" opacity="0.2"/></g><g transform="translate(-302,-118) scale(1,1)"><path fill="#ffffff" stroke="none" d="M 944 569 C 944 559.6111584 1001.7552608 552 1073 552 C 1144.2447392 552 1202 559.6111584 1202 569 C 1202 578.3888416 1144.2447392 586 1073 586 C 1001.7552608 586 944 578.3888416 944 569 Z"/></g><g transform="translate(-302,-118) scale(1,1)"><path fill="none" stroke="#000000" d="M 944 569 C 944 559.6111584 1001.7552608 552 1073 552 C 1144.2447392 552 1202 559.6111584 1202 569 C 1202 578.3888416 1144.2447392 586 1073 586 C 1001.7552608 586 944 578.3888416 944 569 Z" stroke-miterlimit="10"/></g><g transform="translate(-302,-118) scale(1,1)"><g><path fill="none" stroke="none"/><text fill="#000000" stroke="none" font-family="Arial" font-size="13px" font-style="normal" font-weight="bold" text-decoration="none" x="986.32275390625" y="574.5">Добавить часть перевозки</text></g></g><g transform="translate(-302,-118) scale(1,1)"><path fill="none" stroke="#000000" d="M 942 539 L 776 583" stroke-miterlimit="10" stroke-dasharray="3"/></g><g transform="translate(-302,-118) scale(1,1)"><path fill="none" stroke="#000000" d="M 784.7449175768619 576.3271882557732 L 776 583 L 786.9019809534406 584.4652000855924" stroke-miterlimit="10"/></g><g transform="translate(-302,-118) scale(1,1)"><g><path fill="none" stroke="none"/><text fill="#000000" stroke="none" font-family="Arial" font-size="13px" font-style="normal" font-weight="normal" text-decoration="none" x="847.5" y="547">«extend»</text></g></g><g transform="translate(-302,-118) scale(1,1)"><path fill="none" stroke="#000000" d="M 943 580 L 834 590" stroke-miterlimit="10" stroke-dasharray="3"/></g><g transform="translate(-302,-118) scale(1,1)"><path fill="none" stroke="#000000" d="M 843.7355951406661 584.879630164037 L 834 590 L 844.5047535760442 593.2634571096593" stroke-miterlimit="10"/></g><g transform="translate(-302,-118) scale(1,1)"><g><path fill="none" stroke="none"/><text fill="#000000" stroke="none" font-family="Arial" font-size="13px" font-style="normal" font-weight="normal" text-decoration="none" x="879.5" y="610">«extend»</text></g></g><g transform="translate(-302,-118) scale(1,1)"><path fill="#C0C0C0" stroke="none" d="M 591 488 C 591 478.6111584 636.890808 471 693.5 471 C 750.109192 471 796 478.6111584 796 488 C 796 497.3888416 750.109192 505 693.5 505 C 636.890808 505 591 497.3888416 591 488 Z" opacity="0.2"/></g><g transform="translate(-302,-118) scale(1,1)"><path fill="#ffffff" stroke="none" d="M 584 481 C 584 471.6111584 629.890808 464 686.5 464 C 743.109192 464 789 471.6111584 789 481 C 789 490.3888416 743.109192 498 686.5 498 C 629.890808 498 584 490.3888416 584 481 Z"/></g><g transform="translate(-302,-118) scale(1,1)"><path fill="none" stroke="#000000" d="M 584 481 C 584 471.6111584 629.890808 464 686.5 464 C 743.109192 464 789 471.6111584 789 481 C 789 490.3888416 743.109192 498 686.5 498 C 629.890808 498 584 490.3888416 584 481 Z" stroke-miterlimit="10"/></g><g transform="translate(-302,-118) scale(1,1)"><g><path fill="none" stroke="none"/><text fill="#000000" stroke="none" font-family="Arial" font-size="13px" font-style="normal" font-weight="bold" text-decoration="none" x="618.634033203125" y="486.5">Запустить перевозку</text></g></g><g transform="translate(-302,-118) scale(1,1)"><path fill="none" stroke="#000000" d="M 438 507 L 583 492" stroke-miterlimit="10"/></g><g transform="translate(-302,-118) scale(1,1)"><path fill="#C0C0C0" stroke="none" d="M 823 752 C 823 742.6111584 912.54304 735 1023 735 C 1133.45696 735 1223 742.6111584 1223 752 C 1223 761.3888416 1133.45696 769 1023 769 C 912.54304 769 823 761.3888416 823 752 Z" opacity="0.2"/></g><g transform="translate(-302,-118) scale(1,1)"><path fill="#ffffff" stroke="none" d="M 816 745 C 816 735.6111584 905.54304 728 1016 728 C 1126.45696 728 1216 735.6111584 1216 745 C 1216 754.3888416 1126.45696 762 1016 762 C 905.54304 762 816 754.3888416 816 745 Z"/></g><g transform="translate(-302,-118) scale(1,1)"><path fill="none" stroke="#000000" d="M 816 745 C 816 735.6111584 905.54304 728 1016 728 C 1126.45696 728 1216 735.6111584 1216 745 C 1216 754.3888416 1126.45696 762 1016 762 C 905.54304 762 816 754.3888416 816 745 Z" stroke-miterlimit="10"/></g><g transform="translate(-302,-118) scale(1,1)"><g><path fill="none" stroke="none"/><text fill="#000000" stroke="none" font-family="Arial" font-size="13px" font-style="normal" font-weight="bold" text-decoration="none" x="878.874755859375" y="750.5">Получить информацию о части перевозки</text></g></g><g transform="translate(-302,-118) scale(1,1)"><path fill="none" stroke="#000000" d="M 1255 646 L 1060 727" stroke-miterlimit="10"/></g><g transform="translate(-302,-118) scale(1,1)"><path fill="none" stroke="#000000" d="M 929 691 L 987 727" stroke-miterlimit="10" stroke-dasharray="3"/></g><g transform="translate(-302,-118) scale(1,1)"><path fill="none" stroke="#000000" d="M 976.1454399144322 725.2171580695979 L 987 727 L 980.5853265754693 718.0640073379271" stroke-miterlimit="10"/></g><g transform="translate(-302,-118) scale(1,1)"><g><path fill="none" stroke="none"/><text fill="#000000" stroke="none" font-family="Arial" font-size="13px" font-style="normal" font-weight="normal" text-decoration="none" x="967.5" y="707">«include»</text></g></g></g></svg>