<svg version="1.1" xmlns="http://www.w3.org/2000/svg" xmlns:xlink="http://www.w3.org/1999/xlink" width="257.6806640625" height="120"><defs/><g><g transform="translate(-519,-200) scale(1,1)"><rect fill="#C0C0C0" stroke="none" x="536" y="217" width="237.6806640625" height="100" opacity="0.2"/></g><g transform="translate(-519,-200) scale(1,1)"><rect fill="#ffffff" stroke="none" x="529" y="210" width="237.6806640625" height="100"/></g><g transform="translate(-519,-200) scale(1,1)"><path fill="none" stroke="#000000" d="M 529 210 L 766.6806640625 210 L 766.6806640625 310 L 529 310 L 529 210 Z Z" stroke-miterlimit="10"/></g><g transform="translate(-519,-200) scale(1,1)"><path fill="none" stroke="#000000" d="M 529 235 L 766.6806640625 235" stroke-miterlimit="10"/></g><g transform="translate(-519,-200) scale(1,1)"><path fill="none" stroke="#000000" d="M 529 258 L 766.6806640625 258" stroke-miterlimit="10"/></g><g transform="translate(-519,-200) scale(1,1)"><g><path fill="none" stroke="none"/><text fill="#000000" stroke="none" font-family="Arial" font-size="13px" font-style="normal" font-weight="bold" text-decoration="none" x="633.38671875" y="228">User</text></g></g><g transform="translate(-519,-200) scale(1,1)"><g><path fill="none" stroke="none"/><text fill="#000000" stroke="none" font-family="Arial" font-size="13px" font-style="normal" font-weight="normal" text-decoration="none" x="534" y="251">#name: string</text></g></g><g transform="translate(-519,-200) scale(1,1)"><g><path fill="none" stroke="none"/><text fill="#000000" stroke="none" font-family="Arial" font-size="13px" font-style="normal" font-weight="normal" text-decoration="none" x="534" y="274">+ShowObject()</text></g></g><g transform="translate(-519,-200) scale(1,1)"><g><path fill="none" stroke="none"/><text fill="#000000" stroke="none" font-family="Arial" font-size="13px" font-style="normal" font-weight="normal" text-decoration="none" x="534" y="289">«constructor»+User(name: string)</text></g></g><g transform="translate(-519,-200) scale(1,1)"><g><path fill="none" stroke="none"/><text fill="#000000" stroke="none" font-family="Arial" font-size="13px" font-style="normal" font-weight="normal" text-decoration="none" x="534" y="304">«constructor»+Dispatcher(name: string)</text></g></g></g></svg>