<svg version="1.1" xmlns="http://www.w3.org/2000/svg" xmlns:xlink="http://www.w3.org/1999/xlink" width="295.728515625" height="225"><defs/><g><g transform="translate(-703,-160) scale(1,1)"><rect fill="#C0C0C0" stroke="none" x="720" y="177" width="275.728515625" height="205" opacity="0.2"/></g><g transform="translate(-703,-160) scale(1,1)"><rect fill="#ffffff" stroke="none" x="713" y="170" width="275.728515625" height="205"/></g><g transform="translate(-703,-160) scale(1,1)"><path fill="none" stroke="#000000" d="M 713 170 L 988.728515625 170 L 988.728515625 375 L 713 375 L 713 170 Z Z" stroke-miterlimit="10"/></g><g transform="translate(-703,-160) scale(1,1)"><path fill="none" stroke="#000000" d="M 713 195 L 988.728515625 195" stroke-miterlimit="10"/></g><g transform="translate(-703,-160) scale(1,1)"><path fill="none" stroke="#000000" d="M 713 263 L 988.728515625 263" stroke-miterlimit="10"/></g><g transform="translate(-703,-160) scale(1,1)"><g><path fill="none" stroke="none"/><text fill="#000000" stroke="none" font-family="Arial" font-size="13px" font-style="normal" font-weight="bold" text-decoration="none" x="828.460205078125" y="188">Vehicle</text></g></g><g transform="translate(-703,-160) scale(1,1)"><g><path fill="none" stroke="none"/><text fill="#000000" stroke="none" font-family="Arial" font-size="13px" font-style="normal" font-weight="normal" text-decoration="none" x="718" y="211">#name: string</text></g></g><g transform="translate(-703,-160) scale(1,1)"><g><path fill="none" stroke="none"/><text fill="#000000" stroke="none" font-family="Arial" font-size="13px" font-style="normal" font-weight="normal" text-decoration="none" x="718" y="226">#coords: Coordinates</text></g></g><g transform="translate(-703,-160) scale(1,1)"><g><path fill="none" stroke="none"/><text fill="#000000" stroke="none" font-family="Arial" font-size="13px" font-style="normal" font-weight="normal" text-decoration="none" x="718" y="241">#driver: Driver[0..1]</text></g></g><g transform="translate(-703,-160) scale(1,1)"><g><path fill="none" stroke="none"/><text fill="#000000" stroke="none" font-family="Arial" font-size="13px" font-style="normal" font-weight="normal" text-decoration="none" x="718" y="256">#dTransportation: DirectTransportation[0..1]</text></g></g><g transform="translate(-703,-160) scale(1,1)"><g><path fill="none" stroke="none"/><text fill="#000000" stroke="none" font-family="Arial" font-size="13px" font-style="normal" font-weight="normal" text-decoration="none" x="718" y="279">«constructor»+Vehicle(name: string)</text></g></g><g transform="translate(-703,-160) scale(1,1)"><g><path fill="none" stroke="none"/><text fill="#000000" stroke="none" font-family="Arial" font-size="13px" font-style="normal" font-weight="normal" text-decoration="none" x="718" y="294">+GetDriver(): Driver[0..1]</text></g></g><g transform="translate(-703,-160) scale(1,1)"><g><path fill="none" stroke="none"/><text fill="#000000" stroke="none" font-family="Arial" font-size="13px" font-style="normal" font-weight="normal" text-decoration="none" x="718" y="309">+SetDriver(driver: Driver)</text></g></g><g transform="translate(-703,-160) scale(1,1)"><g><path fill="none" stroke="none"/><text fill="#000000" stroke="none" font-family="Arial" font-size="13px" font-style="normal" font-weight="normal" text-decoration="none" x="718" y="324">+GetDTransportation(): DirectTransportation</text></g></g><g transform="translate(-703,-160) scale(1,1)"><g><path fill="none" stroke="none"/><text fill="#000000" stroke="none" font-family="Arial" font-size="13px" font-style="normal" font-weight="normal" text-decoration="none" x="718" y="339">+SetDTransportation(dT: DirectTransportation)</text></g></g><g transform="translate(-703,-160) scale(1,1)"><g><path fill="none" stroke="none"/><text fill="#000000" stroke="none" font-family="Arial" font-size="13px" font-style="normal" font-weight="normal" text-decoration="none" x="718" y="354">+ShowObject()</text></g></g><g transform="translate(-703,-160) scale(1,1)"><g><path fill="none" stroke="none"/><text fill="#000000" stroke="none" font-family="Arial" font-size="13px" font-style="italic" font-weight="normal" text-decoration="none" x="718" y="369">+Move(coords: Coordinates)</text></g></g></g></svg>