<svg version="1.1" xmlns="http://www.w3.org/2000/svg" xmlns:xlink="http://www.w3.org/1999/xlink" width="230.24609375" height="92"><defs/><g><g transform="translate(-599,-254) scale(1,1)"><rect fill="#C0C0C0" stroke="none" x="616" y="271" width="210.24609375" height="72" opacity="0.2"/></g><g transform="translate(-599,-254) scale(1,1)"><rect fill="#ffffff" stroke="none" x="609" y="264" width="210.24609375" height="72"/></g><g transform="translate(-599,-254) scale(1,1)"><path fill="none" stroke="#000000" d="M 609 264 L 819.24609375 264 L 819.24609375 336 L 609 336 L 609 264 Z Z" stroke-miterlimit="10"/></g><g transform="translate(-599,-254) scale(1,1)"><path fill="none" stroke="#000000" d="M 609 289 L 819.24609375 289" stroke-miterlimit="10"/></g><g transform="translate(-599,-254) scale(1,1)"><path fill="none" stroke="#000000" d="M 609 299 L 819.24609375 299" stroke-miterlimit="10"/></g><g transform="translate(-599,-254) scale(1,1)"><g><path fill="none" stroke="none"/><text fill="#000000" stroke="none" font-family="Arial" font-size="13px" font-style="normal" font-weight="bold" text-decoration="none" x="668.594482421875" y="282">VehicleSystem</text></g></g><g transform="translate(-599,-254) scale(1,1)"><g><path fill="none" stroke="none"/><text fill="#000000" stroke="none" font-family="Arial" font-size="13px" font-style="normal" font-weight="normal" text-decoration="none" x="614" y="315">+AddObject(obj: UniqueObject): int</text></g></g><g transform="translate(-599,-254) scale(1,1)"><g><path fill="none" stroke="none"/><text fill="#000000" stroke="none" font-family="Arial" font-size="13px" font-style="normal" font-weight="normal" text-decoration="none" x="614" y="330">+ShowObjects()</text></g></g></g></svg>