<svg version="1.1" xmlns="http://www.w3.org/2000/svg" xmlns:xlink="http://www.w3.org/1999/xlink" width="271.65185546875" height="107"><defs/><g><g transform="translate(-745,-188) scale(1,1)"><rect fill="#C0C0C0" stroke="none" x="762" y="205" width="251.65185546875" height="87" opacity="0.2"/></g><g transform="translate(-745,-188) scale(1,1)"><rect fill="#ffffff" stroke="none" x="755" y="198" width="251.65185546875" height="87"/></g><g transform="translate(-745,-188) scale(1,1)"><path fill="none" stroke="#000000" d="M 755 198 L 1006.65185546875 198 L 1006.65185546875 285 L 755 285 L 755 198 Z Z" stroke-miterlimit="10"/></g><g transform="translate(-745,-188) scale(1,1)"><path fill="none" stroke="#000000" d="M 755 223 L 1006.65185546875 223" stroke-miterlimit="10"/></g><g transform="translate(-745,-188) scale(1,1)"><path fill="none" stroke="#000000" d="M 755 233 L 1006.65185546875 233" stroke-miterlimit="10"/></g><g transform="translate(-745,-188) scale(1,1)"><g><path fill="none" stroke="none"/><text fill="#000000" stroke="none" font-family="Arial" font-size="13px" font-style="normal" font-weight="bold" text-decoration="none" x="840.60400390625" y="216">WaterVehicle</text></g></g><g transform="translate(-745,-188) scale(1,1)"><g><path fill="none" stroke="none"/><text fill="#000000" stroke="none" font-family="Arial" font-size="13px" font-style="normal" font-weight="normal" text-decoration="none" x="760" y="249">+ShowObject()</text></g></g><g transform="translate(-745,-188) scale(1,1)"><g><path fill="none" stroke="none"/><text fill="#000000" stroke="none" font-family="Arial" font-size="13px" font-style="normal" font-weight="normal" text-decoration="none" x="760" y="264">+Move(coords: Coordinates)</text></g></g><g transform="translate(-745,-188) scale(1,1)"><g><path fill="none" stroke="none"/><text fill="#000000" stroke="none" font-family="Arial" font-size="13px" font-style="normal" font-weight="normal" text-decoration="none" x="760" y="279">«constructor»+WaterVehicle(name: string)</text></g></g></g></svg>